<svg width="200" height="49" viewBox="0 0 200 49" fill="none" xmlns="http://www.w3.org/2000/svg">
<g clip-path="url(#clip0_210_9710)">
<path d="M79.1263 31.3102C79.0606 29.169 78.9833 26.9693 78.8936 24.71C78.8007 22.3506 78.6588 20.034 78.472 17.8217L78.377 16.6942L77.9356 17.7163C77.7519 18.1412 77.5359 18.6507 77.2855 19.2426C77.035 19.8346 76.7689 20.4777 76.485 21.1719C76.2012 21.8662 75.9132 22.5834 75.621 23.3226L74.7715 25.469C74.497 26.1622 74.2414 26.8095 74.0087 27.4109L73.874 27.7564C73.6371 28.3651 73.0955 28.7597 72.4955 28.7597C71.8923 28.7597 71.3496 28.363 71.1138 27.7481L70.9802 27.3983C70.7465 26.7886 70.4929 26.1361 70.2174 25.4429L69.3679 23.2965C69.0757 22.5563 68.7877 21.8422 68.5038 21.1573L67.7045 19.2311C67.453 18.6277 67.2359 18.1213 67.0512 17.7121L66.6087 16.7318L66.5169 17.8228C66.3301 20.035 66.1881 22.3516 66.0953 24.7111C66.0066 26.9703 65.9293 29.17 65.8626 31.3112H63.334C63.3987 29.8256 63.4738 28.293 63.5615 26.7114C63.6544 25.0138 63.7566 23.3299 63.8662 21.6584C63.9747 20.0058 64.0989 18.3719 64.2346 16.8028C64.3609 15.3443 64.4955 13.9777 64.6343 12.7354H67.1326C67.4749 13.4014 67.8558 14.2074 68.2669 15.1376C68.7157 16.1513 69.1728 17.2162 69.6382 18.3312C70.1036 19.4472 70.5659 20.581 71.023 21.7336C71.4811 22.8883 71.9017 23.9542 72.2847 24.9335L72.5445 25.5953L74.0535 21.7315C74.5106 20.5591 74.9719 19.4149 75.4248 18.3312C75.8902 17.2162 76.3473 16.1513 76.796 15.1376C77.2103 14.2022 77.5912 13.3952 77.9304 12.7354H80.3525C80.4923 14.0466 80.628 15.455 80.7543 16.927C80.8899 18.5035 81.0131 20.1331 81.1227 21.7691C81.2322 23.4217 81.3345 25.0827 81.4274 26.7531C81.514 28.3087 81.5902 29.8277 81.6549 31.3112H79.1263V31.3102Z" fill="#0A1524"/>
<path d="M90.4466 31.6349C89.3405 31.6349 88.3668 31.4689 87.5539 31.1432C86.7482 30.8196 86.0772 30.3644 85.5596 29.7923C85.0389 29.216 84.6465 28.528 84.3939 27.745C84.1383 26.9526 84.0078 26.0694 84.0078 25.1204C84.0078 24.0116 84.1737 23.0282 84.5004 22.1993C84.826 21.3724 85.2632 20.6771 85.8007 20.1321C86.336 19.5882 86.959 19.1717 87.653 18.8971C88.3491 18.6204 89.0702 18.4795 89.7975 18.4795C91.5048 18.4795 92.85 19.0119 93.7986 20.0601C94.7534 21.1187 95.2377 22.7369 95.2377 24.8698C95.2377 25.0337 95.2335 25.2175 95.2251 25.421C95.221 25.5234 95.2168 25.6205 95.2105 25.7123H86.5447L86.5687 26.0172C86.6574 27.1374 87.0634 28.0217 87.7761 28.6449C88.4837 29.263 89.5085 29.5772 90.8234 29.5772C91.2731 29.5772 92.2499 29.4154 93.0138 29.264C93.0816 29.2504 93.1484 29.2442 93.2142 29.2442C93.714 29.2442 94.1346 29.6023 94.215 30.0961C94.2964 30.6003 93.9885 31.0889 93.5001 31.2299C93.2674 31.2977 93.0535 31.3551 92.9293 31.3802C92.563 31.4533 92.1643 31.5149 91.7407 31.5639C91.3201 31.6099 90.8849 31.6349 90.4466 31.6349ZM89.8226 20.437C89.3133 20.437 88.8594 20.5351 88.4722 20.7293C88.0903 20.9204 87.7626 21.1751 87.4975 21.4862C87.2345 21.7952 87.0289 22.1523 86.8849 22.548C86.7451 22.9332 86.648 23.332 86.5948 23.7329L86.5531 24.0524H92.779V23.7694C92.779 23.3268 92.7164 22.8987 92.5912 22.4989C92.4639 22.0896 92.275 21.7295 92.0276 21.4288C91.7772 21.1229 91.4683 20.8796 91.1083 20.7043C90.7451 20.5268 90.312 20.437 89.8226 20.437Z" fill="#0A1524"/>
<path d="M102.389 31.6099C101.497 31.6099 100.746 31.4908 100.158 31.2559C99.583 31.0252 99.1228 30.6901 98.7899 30.2579C98.4507 29.8194 98.2075 29.2755 98.0677 28.6439C97.9227 27.9924 97.8496 27.2355 97.8496 26.393V18.135C97.8496 16.6107 98.865 15.3078 100.308 14.9194V18.801H103.976C104.517 18.801 104.956 19.2406 104.956 19.7803C104.956 20.3211 104.517 20.7606 103.976 20.7606H100.307V26.3669C100.307 27.4892 100.489 28.2805 100.862 28.7848C101.25 29.3078 101.898 29.5741 102.788 29.5741C103.362 29.5741 103.878 29.5114 104.324 29.3893C104.6 29.3131 104.844 29.24 105.051 29.17L105.436 31.0179C105.13 31.1369 104.752 31.2591 104.31 31.3812C103.773 31.5347 103.127 31.6099 102.389 31.6099Z" fill="#0A1524"/>
<path d="M115.339 31.3102V24.7184C115.339 24.0074 115.291 23.3894 115.197 22.8799C115.098 22.3516 114.932 21.9121 114.703 21.5739C114.463 21.2179 114.139 20.9569 113.738 20.795C113.356 20.6395 112.882 20.5612 112.334 20.5612C111.917 20.5612 111.487 20.605 111.053 20.6917C110.621 20.7773 110.308 20.8545 110.095 20.9255L109.902 20.9903V31.3092H107.443V15.7619C107.443 14.2387 108.459 12.9348 109.902 12.5464V19.0683L110.278 18.9378C110.596 18.8271 110.973 18.73 111.4 18.6486C111.82 18.5692 112.244 18.5285 112.658 18.5285C113.665 18.5285 114.506 18.6684 115.16 18.944C115.803 19.2155 116.324 19.5997 116.709 20.0841C117.097 20.5747 117.378 21.1719 117.542 21.861C117.711 22.5688 117.797 23.3706 117.797 24.2444V31.3112H115.339V31.3102Z" fill="#0A1524"/>
<path d="M126.25 31.661C125.361 31.661 124.54 31.5003 123.814 31.185C123.089 30.8697 122.456 30.4218 121.936 29.8528C121.414 29.2828 121 28.5833 120.706 27.7732C120.411 26.9599 120.262 26.0422 120.262 25.0452C120.262 24.0492 120.411 23.1357 120.706 22.3298C121 21.528 121.418 20.8316 121.947 20.2637C122.475 19.6958 123.111 19.2521 123.837 18.9441C124.563 18.635 125.375 18.4795 126.25 18.4795C127.124 18.4795 127.94 18.6361 128.677 18.9451C129.41 19.2531 130.045 19.6958 130.565 20.2626C131.087 20.8316 131.5 21.5269 131.794 22.3308C132.09 23.1378 132.24 24.0503 132.24 25.0463C132.24 26.0412 132.094 26.9609 131.806 27.7774C131.521 28.5865 131.111 29.2859 130.59 29.8539C130.069 30.4218 129.434 30.8707 128.7 31.185C127.964 31.5003 127.14 31.661 126.25 31.661ZM126.25 20.5372C125.16 20.5372 124.298 20.959 123.687 21.79C123.095 22.5929 122.794 23.688 122.794 25.0442C122.794 26.417 123.094 27.5237 123.686 28.3359C124.296 29.1753 125.159 29.6012 126.25 29.6012C127.34 29.6012 128.203 29.1753 128.815 28.3349C129.407 27.5226 129.706 26.4149 129.706 25.0442C129.706 23.6891 129.405 22.5939 128.814 21.79C128.202 20.959 127.339 20.5372 126.25 20.5372Z" fill="#0A1524"/>
<path d="M140.566 31.635C139.573 31.635 138.675 31.4815 137.894 31.1798C137.121 30.8791 136.452 30.4438 135.908 29.8831C135.365 29.3235 134.939 28.6335 134.647 27.8338C134.351 27.0278 134.201 26.1059 134.201 25.0943C134.201 24.0941 134.327 23.1754 134.576 22.3653C134.822 21.5635 135.186 20.8692 135.66 20.3013C136.131 19.7365 136.711 19.2959 137.383 18.99C138.059 18.6841 138.852 18.5275 139.74 18.5275C140.342 18.5275 140.877 18.5985 141.331 18.7395C141.794 18.8835 142.199 19.0454 142.532 19.2207L142.946 19.4369V15.7609C142.946 14.2377 143.962 12.9338 145.405 12.5454V30.9814C144.855 31.137 144.176 31.2821 143.379 31.4147C142.491 31.5608 141.545 31.635 140.566 31.635ZM140.191 20.5623C138.997 20.5623 138.107 20.982 137.546 21.812C137.007 22.6044 136.735 23.6839 136.735 25.0202C136.735 26.415 137.076 27.531 137.749 28.338C138.435 29.1596 139.391 29.5772 140.59 29.5772C141.092 29.5772 141.507 29.5564 141.861 29.5125C142.205 29.4707 142.498 29.4227 142.727 29.3705L142.946 29.3204V21.4476L142.824 21.363C142.536 21.1657 142.168 20.9862 141.698 20.817C141.228 20.6479 140.72 20.5623 140.191 20.5623Z" fill="#0A1524"/>
<path d="M153.791 31.3103V12.7344H164.345V14.8443H156.375V21.5029H162.441C163.009 21.5029 163.471 21.9654 163.471 22.5323C163.471 23.1003 163.009 23.5617 162.441 23.5617H156.375V29.2014H164.945V31.3113H153.791V31.3103Z" fill="#0A1524"/>
<path d="M166.966 35.9853C166.781 35.9853 166.327 35.9195 165.781 35.8131C165.528 35.764 165.313 35.6189 165.172 35.4048C165.033 35.1908 164.987 34.935 165.043 34.6855C165.142 34.2481 165.523 33.9318 165.949 33.9318C165.993 33.9318 166.038 33.9349 166.083 33.9422C166.336 33.9819 166.589 34.0017 166.835 34.0017C167.686 34.0017 168.369 33.7898 168.861 33.3732C169.336 32.9713 169.756 32.3511 170.106 31.5306L170.159 31.4084L170.097 31.2894C169.153 29.4739 168.232 27.4631 167.36 25.3146C166.532 23.2715 165.782 21.0833 165.126 18.8042H167.753C167.913 19.4557 168.103 20.152 168.319 20.8765C168.563 21.6982 168.83 22.5386 169.112 23.3738C169.4 24.2246 169.705 25.0734 170.019 25.8961C170.337 26.7313 170.659 27.5185 170.978 28.2347L171.264 28.8798L171.502 28.2148C172.031 26.7344 172.535 25.135 173 23.4584C173.442 21.8694 173.851 20.3044 174.219 18.8042H176.751C175.436 23.593 173.897 27.9998 172.174 31.9043C171.85 32.6341 171.512 33.2678 171.17 33.7887C170.838 34.2951 170.462 34.7189 170.053 35.0488C169.651 35.3735 169.195 35.6126 168.699 35.7609C168.203 35.9081 167.622 35.9832 166.969 35.9864H166.966V35.9853Z" fill="#0A1524"/>
<path d="M184.415 31.6349C183.309 31.6349 182.336 31.4689 181.523 31.1432C180.717 30.8196 180.046 30.3644 179.528 29.7923C179.008 29.216 178.615 28.528 178.363 27.745C178.107 26.9526 177.977 26.0694 177.977 25.1204C177.977 24.0116 178.142 23.0282 178.469 22.1993C178.795 21.3724 179.232 20.6771 179.769 20.1321C180.305 19.5882 180.928 19.1717 181.622 18.8971C182.318 18.6204 183.039 18.4795 183.766 18.4795C185.474 18.4795 186.819 19.0119 187.766 20.0601C188.721 21.1187 189.205 22.7369 189.205 24.8698C189.205 25.0337 189.201 25.2175 189.193 25.421C189.189 25.5234 189.184 25.6205 189.178 25.7123H180.512L180.536 26.0172C180.625 27.1384 181.031 28.0227 181.744 28.6449C182.451 29.263 183.476 29.5772 184.791 29.5772C185.241 29.5772 186.218 29.4154 186.982 29.264C187.049 29.2504 187.116 29.2442 187.182 29.2442C187.682 29.2442 188.102 29.6023 188.183 30.0961C188.264 30.6003 187.956 31.0889 187.468 31.2299C187.235 31.2977 187.021 31.3551 186.897 31.3802C186.531 31.4533 186.132 31.5149 185.708 31.5639C185.288 31.6099 184.853 31.6349 184.415 31.6349ZM183.79 20.437C183.281 20.437 182.827 20.5351 182.44 20.7293C182.059 20.9204 181.73 21.1751 181.464 21.4852C181.201 21.7952 180.996 22.1523 180.852 22.5469C180.712 22.9322 180.615 23.331 180.561 23.7319L180.52 24.0513H186.746V23.7684C186.746 23.3257 186.683 22.8977 186.558 22.4978C186.431 22.0886 186.242 21.7284 185.994 21.4277C185.745 21.1229 185.435 20.8786 185.076 20.7032C184.713 20.5268 184.281 20.437 183.79 20.437Z" fill="#0A1524"/>
<path d="M194.933 31.6351C193.815 31.6351 192.906 31.5422 192.235 31.3584L191.888 31.2613C191.394 31.1204 191.09 30.614 191.194 30.1067C191.29 29.6483 191.696 29.3153 192.16 29.3153C192.249 29.3153 192.34 29.3278 192.429 29.3529C192.533 29.3832 192.641 29.4124 192.75 29.4416C193.394 29.6128 194.137 29.7005 194.958 29.7005C195.813 29.7005 196.428 29.5961 196.839 29.3811C197.297 29.142 197.54 28.714 197.54 28.1429C197.54 27.6157 197.303 27.1772 196.836 26.8389C196.419 26.5383 195.765 26.224 194.832 25.8774C194.294 25.6822 193.795 25.4713 193.346 25.251C192.913 25.038 192.535 24.7875 192.224 24.5077C191.921 24.2352 191.68 23.9011 191.506 23.5148C191.332 23.1286 191.243 22.6431 191.243 22.0689C191.243 20.9508 191.641 20.0957 192.459 19.4547C193.287 18.8064 194.439 18.4775 195.883 18.4775C196.625 18.4775 197.346 18.5475 198.026 18.6843C198.143 18.7083 198.256 18.7312 198.364 18.7552C198.623 18.8127 198.846 18.9672 198.988 19.1906C199.129 19.4119 199.174 19.675 199.116 19.9318C199.017 20.3766 198.615 20.7002 198.162 20.7002C198.094 20.7002 198.026 20.6929 197.958 20.6783C197.637 20.6094 196.551 20.387 196.032 20.387C195.327 20.387 194.748 20.5196 194.313 20.7827C193.914 21.0239 193.676 21.4582 193.676 21.9457C193.677 22.2015 193.723 22.4333 193.814 22.6347C193.909 22.8446 194.067 23.0367 194.286 23.2058C194.486 23.3603 194.74 23.5096 195.063 23.662C195.368 23.8072 195.747 23.9575 196.19 24.111C196.885 24.3688 197.488 24.6298 197.976 24.8825C198.448 25.1257 198.841 25.4034 199.143 25.7062C199.436 25.9996 199.653 26.3389 199.789 26.7147C199.928 27.0979 199.998 27.5708 199.998 28.1178C199.998 29.2798 199.584 30.1317 198.732 30.7226C197.861 31.3281 196.582 31.6351 194.933 31.6351Z" fill="#0A1524"/>
<path d="M24.929 13.1787H21.9746V26.7392H24.929V13.1787Z" fill="#D24D28"/>
<path d="M10.1086 24.9136H7.1543V38.473H10.1086V24.9136Z" fill="#D24D28"/>
<path d="M46.7932 13.1787H43.8389V26.7392H46.7932V13.1787Z" fill="#D24D28"/>
<path d="M31.9729 24.9136H29.0186V38.4741H31.9729V24.9136Z" fill="#D24D28"/>
<path d="M28.9957 43.4426C28.8559 44.3738 28.0033 45.0931 26.9733 45.0931C25.8463 45.0931 24.929 44.2318 24.929 43.1743V31.708H21.9746V43.1753C21.9746 45.8636 24.2172 48.0497 26.9743 48.0497C29.6386 48.0497 31.8228 46.0066 31.9657 43.4426H28.9957Z" fill="#D24D28"/>
<path d="M7.1543 43.4414V47.0672C7.1543 47.8836 7.81592 48.5455 8.63199 48.5455C9.44806 48.5455 10.1097 47.8836 10.1097 47.0672V43.4425L7.1543 43.4414Z" fill="#D24D28"/>
<path d="M43.8389 31.708V47.0673C43.8389 47.8837 44.5005 48.5456 45.3166 48.5456C46.1326 48.5456 46.7943 47.8837 46.7943 47.0673V31.708H43.8389Z" fill="#D24D28"/>
<path d="M31.9739 19.945V9.1699C31.9739 6.04416 34.635 3.50097 37.9066 3.50097C40.8348 3.50097 43.2736 5.53991 43.7526 8.20942H46.7383C46.2426 3.905 42.4722 0.54541 37.9066 0.54541C33.006 0.54541 29.0195 4.41448 29.0195 9.1699V19.945H31.9739Z" fill="#D24D28"/>
<path d="M10.1096 19.945V9.1699C10.1096 6.04416 12.7707 3.50097 16.0423 3.50097C18.9706 3.50097 21.4094 5.53991 21.8884 8.20942H24.874C24.3794 3.905 20.6079 0.54541 16.0423 0.54541C11.1417 0.54541 7.15527 4.41448 7.15527 9.1699V19.945H10.1096Z" fill="#D24D28"/>
<path d="M27.3146 9.78467H11.8145V11.6033H27.3146V9.78467Z" fill="url(#paint0_linear_210_9710)"/>
<path d="M33.6777 30.1323V28.3137H47.384C47.6198 28.3137 47.8578 28.2782 48.0905 28.2093C49.1382 27.8981 49.8687 26.9178 49.8687 25.8258C49.8687 24.881 49.3219 24.0207 48.4975 23.6042V21.6665C50.354 22.1603 51.6876 23.8485 51.6876 25.8268C51.6876 28.0213 50.0451 29.8609 47.8661 30.1052C47.7012 30.124 47.5395 30.1333 47.384 30.1333H33.6777V30.1323Z" fill="url(#paint1_linear_210_9710)"/>
<path d="M42.1349 21.519H26.6348V23.3377H42.1349V21.519Z" fill="url(#paint2_linear_210_9710)"/>
<path d="M33.6777 11.6033V9.78467H50.6409C51.1419 9.78467 51.5499 10.1929 51.5499 10.694C51.5499 11.1951 51.1419 11.6033 50.6409 11.6033H33.6777Z" fill="url(#paint3_linear_210_9710)"/>
<path d="M48.498 41.868V40.0493H50.6415C51.1424 40.0493 51.5505 40.4575 51.5505 40.9586C51.5505 41.4598 51.1424 41.868 50.6415 41.868H48.498Z" fill="url(#paint4_linear_210_9710)"/>
<path d="M11.2465 41.8667H6.77381C6.53587 41.8667 6.30107 41.8552 6.07775 41.8312C2.61205 41.4752 0 38.5781 0 35.0901C0 31.8151 2.30211 29.061 5.45056 28.4419V30.3117C3.31959 30.8984 1.81894 32.8371 1.81894 35.0901C1.81894 37.5049 3.54396 39.5584 5.92121 39.9729C6.20089 40.0219 6.48891 40.047 6.77485 40.047H11.2465L20.2713 40.048V41.8667H11.2465Z" fill="url(#paint5_linear_210_9710)"/>
<path d="M27.3146 28.3135H11.8145V30.1321H27.3146V28.3135Z" fill="url(#paint6_linear_210_9710)"/>
<path d="M6.77381 23.3389C6.54318 23.3389 6.31464 23.3274 6.07462 23.3034C2.61205 22.9464 0 20.0482 0 16.5613C0 13.2873 2.30211 10.5332 5.45056 9.91309V11.7829C3.31959 12.3696 1.81894 14.3083 1.81894 16.5613C1.81894 18.9761 3.54396 21.0306 5.92121 21.4451C6.20924 21.4942 6.49622 21.5192 6.77485 21.5192H20.2713V23.3379H6.77381V23.3389Z" fill="url(#paint7_linear_210_9710)"/>
<path d="M42.1349 40.0483H26.6348V41.867H42.1349V40.0483Z" fill="url(#paint8_linear_210_9710)"/>
</g>
<defs>
<linearGradient id="paint0_linear_210_9710" x1="11.8145" y1="10.6938" x2="27.3143" y2="10.6938" gradientUnits="userSpaceOnUse">
<stop stop-color="#886696"/>
<stop offset="0.3966" stop-color="#33699C"/>
</linearGradient>
<linearGradient id="paint1_linear_210_9710" x1="33.6777" y1="25.8993" x2="51.6879" y2="25.8993" gradientUnits="userSpaceOnUse">
<stop stop-color="#886696"/>
<stop offset="0.3966" stop-color="#33699C"/>
</linearGradient>
<linearGradient id="paint2_linear_210_9710" x1="26.6343" y1="22.4287" x2="42.134" y2="22.4287" gradientUnits="userSpaceOnUse">
<stop stop-color="#886696"/>
<stop offset="0.3966" stop-color="#33699C"/>
</linearGradient>
<linearGradient id="paint3_linear_210_9710" x1="33.6777" y1="10.6938" x2="51.5504" y2="10.6938" gradientUnits="userSpaceOnUse">
<stop stop-color="#886696"/>
<stop offset="0.3966" stop-color="#33699C"/>
</linearGradient>
<linearGradient id="paint4_linear_210_9710" x1="48.4985" y1="40.9583" x2="51.551" y2="40.9583" gradientUnits="userSpaceOnUse">
<stop stop-color="#886696"/>
<stop offset="0.3966" stop-color="#33699C"/>
</linearGradient>
<linearGradient id="paint5_linear_210_9710" x1="0" y1="35.155" x2="20.2705" y2="35.155" gradientUnits="userSpaceOnUse">
<stop stop-color="#886696"/>
<stop offset="0.3966" stop-color="#33699C"/>
</linearGradient>
<linearGradient id="paint6_linear_210_9710" x1="11.8145" y1="29.2229" x2="27.3143" y2="29.2229" gradientUnits="userSpaceOnUse">
<stop stop-color="#886696"/>
<stop offset="0.3966" stop-color="#33699C"/>
</linearGradient>
<linearGradient id="paint7_linear_210_9710" x1="0" y1="16.626" x2="20.2705" y2="16.626" gradientUnits="userSpaceOnUse">
<stop stop-color="#886696"/>
<stop offset="0.3966" stop-color="#33699C"/>
</linearGradient>
<linearGradient id="paint8_linear_210_9710" x1="26.6343" y1="40.9583" x2="42.134" y2="40.9583" gradientUnits="userSpaceOnUse">
<stop stop-color="#886696"/>
<stop offset="0.3966" stop-color="#33699C"/>
</linearGradient>
<clipPath id="clip0_210_9710">
<rect width="200" height="48" fill="white" transform="translate(0 0.54541)"/>
</clipPath>
</defs>
</svg>
