<?xml version="1.0" standalone="no"?>
<!DOCTYPE svg PUBLIC "-//W3C//DTD SVG 20010904//EN"
 "http://www.w3.org/TR/2001/REC-SVG-20010904/DTD/svg10.dtd">
<svg version="1.0" xmlns="http://www.w3.org/2000/svg"
 width="70.000000pt" height="70.000000pt" viewBox="0 0 70.000000 70.000000"
 preserveAspectRatio="xMidYMid meet">
<metadata>
Created by potrace 1.14, written by Peter Selinger 2001-2017
</metadata>
<g transform="translate(0.000000,70.000000) scale(0.100000,-0.100000)"
fill="#000000" stroke="none">
<path d="M159 684 c-48 -31 -62 -67 -61 -167 1 -61 5 -93 14 -98 23 -14 28 2
28 95 0 79 3 95 20 114 12 12 26 22 33 23 7 0 20 2 29 4 21 4 68 -31 68 -51 0
-8 10 -14 24 -14 23 0 24 2 15 29 -24 68 -113 102 -170 65z"/>
<path d="M452 680 c-45 -28 -58 -64 -60 -171 -3 -87 -2 -90 18 -87 20 3 22 10
23 95 3 119 21 142 109 134 9 0 25 -14 35 -31 16 -29 53 -42 53 -20 0 25 -32
71 -60 85 -40 20 -79 19 -118 -5z"/>
<path d="M165 561 c-17 -16 7 -21 101 -21 79 0 105 3 102 12 -3 9 -35 13 -102
13 -53 1 -99 -1 -101 -4z"/>
<path d="M461 562 c-6 -2 -9 -8 -5 -13 7 -13 244 -12 244 1 0 6 -6 11 -12 11
-34 4 -218 4 -227 1z"/>
<path d="M26 529 c-36 -43 -35 -91 3 -130 29 -29 31 -29 141 -29 81 0 111 3
108 12 -3 7 -37 12 -99 13 -128 3 -123 1 -142 35 -16 26 -16 32 -3 65 8 19 19
35 24 35 6 0 12 7 16 15 10 27 -21 16 -48 -16z"/>
<path d="M299 493 c-4 -153 -3 -168 19 -171 20 -3 21 0 19 95 -2 84 -4 98 -19
101 -14 3 -18 -3 -19 -25z"/>
<path d="M597 513 c-2 -5 -4 -50 -4 -100 -1 -89 0 -93 21 -93 21 0 22 4 20 88
-1 48 -2 93 -3 100 -1 13 -27 17 -34 5z"/>
<path d="M378 392 c-10 -2 -18 -8 -18 -13 0 -5 47 -9 105 -9 63 0 105 4 105
10 0 6 -3 11 -7 11 -20 3 -170 4 -185 1z"/>
<path d="M660 382 c0 -6 4 -22 9 -36 15 -38 -7 -49 -112 -50 -50 -1 -93 -6
-95 -12 -1 -5 42 -10 100 -12 95 -3 104 -1 121 19 23 28 22 62 -3 84 -11 10
-20 13 -20 7z"/>
<path d="M103 341 c-4 -3 -7 -17 -6 -31 0 -14 1 -55 2 -92 1 -61 3 -68 21 -68
19 0 20 7 20 98 0 80 -3 99 -15 99 -8 0 -18 -3 -22 -6z"/>
<path d="M392 249 c0 -87 2 -98 19 -102 19 -5 21 3 21 83 0 107 -2 119 -21
117 -18 -1 -20 -9 -19 -98z"/>
<path d="M164 291 c-16 -16 8 -21 101 -21 78 0 105 3 105 13 0 9 -26 12 -101
12 -55 1 -102 -1 -105 -4z"/>
<path d="M30 268 c-27 -29 -35 -62 -24 -100 16 -55 46 -68 161 -71 75 -1 104
1 108 10 5 15 11 14 -100 17 -114 2 -133 9 -143 49 -9 33 8 87 28 87 6 0 10 7
10 15 0 21 -16 19 -40 -7z"/>
<path d="M305 240 c-4 -7 -7 -52 -7 -102 1 -100 14 -128 61 -128 34 0 71 26
71 50 0 20 -20 21 -44 1 -34 -28 -45 -7 -48 90 -3 88 -15 119 -33 89z"/>
<path d="M595 236 c-3 -10 0 -212 3 -228 4 -15 30 -8 34 10 3 15 3 150 -1 208
-1 21 -30 29 -36 10z"/>
<path d="M378 122 c-10 -2 -18 -8 -18 -13 0 -11 8 -11 119 -10 82 1 101 4 88
17 -7 7 -161 12 -189 6z"/>
<path d="M662 123 c-6 -3 -10 -9 -6 -14 7 -12 44 -12 44 0 0 11 -21 19 -38 14z"/>
<path d="M104 72 c-7 -4 -9 -21 -7 -40 7 -46 38 -40 38 7 0 35 -11 47 -31 33z"/>
</g>
</svg>
