<svg width="1440" height="728" viewBox="0 0 1440 728" fill="none" xmlns="http://www.w3.org/2000/svg">
<g clip-path="url(#clip0_210_9580)">
<path d="M359.988 776.873C161.396 776.873 0.326172 603.055 0.326172 388.597" stroke="#D24D28" stroke-opacity="0.2" stroke-width="0.653586" stroke-miterlimit="10"/>
<path d="M359.988 0.327148C558.646 0.327148 719.65 174.145 719.65 388.597" stroke="#D24D28" stroke-opacity="0.2" stroke-width="0.653586" stroke-miterlimit="10"/>
<path d="M359.987 687.392C207.172 687.392 83.2656 553.567 83.2656 388.597" stroke="#D24D28" stroke-opacity="0.2" stroke-width="0.653586" stroke-miterlimit="10"/>
<path d="M359.988 89.8008C512.869 89.8008 636.769 223.563 636.769 388.597" stroke="#D24D28" stroke-opacity="0.2" stroke-width="0.653586" stroke-miterlimit="10"/>
<path d="M359.988 597.855C252.95 597.855 166.154 504.155 166.154 388.604" stroke="#D24D28" stroke-opacity="0.2" stroke-width="0.653586" stroke-miterlimit="10"/>
<path d="M359.988 179.281C467.085 179.281 553.888 272.981 553.888 388.603" stroke="#D24D28" stroke-opacity="0.2" stroke-width="0.653586" stroke-miterlimit="10"/>
<path d="M359.988 508.375C298.727 508.375 249.035 454.73 249.035 388.597" stroke="#D24D28" stroke-opacity="0.2" stroke-width="0.653586" stroke-miterlimit="10"/>
<path d="M359.988 268.819C421.308 268.819 470.941 322.4 470.941 388.597" stroke="#D24D28" stroke-opacity="0.2" stroke-width="0.653586" stroke-miterlimit="10"/>
<path d="M359.988 776.873C360.106 562.442 521.123 388.681 719.761 388.547" stroke="#D24D28" stroke-opacity="0.2" stroke-width="0.653586" stroke-miterlimit="10"/>
<path d="M442.941 776.873C443.059 611.896 567.005 478.225 719.768 478.098" stroke="#D24D28" stroke-opacity="0.2" stroke-width="0.653586" stroke-miterlimit="10"/>
<path d="M525.953 776.873C526.071 661.357 612.821 567.777 719.767 567.643" stroke="#D24D28" stroke-opacity="0.2" stroke-width="0.653586" stroke-miterlimit="10"/>
<path d="M608.9 776.873C609.018 710.817 658.632 657.391 719.762 657.257" stroke="#D24D28" stroke-opacity="0.2" stroke-width="0.653586" stroke-miterlimit="10"/>
<path d="M360.046 0.327148C359.929 214.758 198.911 388.519 0.273438 388.653" stroke="#D24D28" stroke-opacity="0.2" stroke-width="0.653586" stroke-miterlimit="10"/>
<path d="M277.094 0.327148C276.976 165.304 153.03 298.975 0.267578 299.102" stroke="#D24D28" stroke-opacity="0.2" stroke-width="0.653586" stroke-miterlimit="10"/>
<path d="M194.082 0.327148C193.964 115.843 107.214 209.424 0.267578 209.558" stroke="#D24D28" stroke-opacity="0.2" stroke-width="0.653586" stroke-miterlimit="10"/>
<path d="M111.135 0.327148C111.017 66.3828 61.4033 119.809 0.273438 119.943" stroke="#D24D28" stroke-opacity="0.2" stroke-width="0.653586" stroke-miterlimit="10"/>
<path d="M1.96094 388.596H1274.3" stroke="#D24D28" stroke-opacity="0.2" stroke-width="0.653586" stroke-miterlimit="10"/>
<path d="M360.021 2.0625V775.137" stroke="#D24D28" stroke-opacity="0.2" stroke-width="0.653586" stroke-miterlimit="10"/>
<path d="M719.658 2.0625V775.137" stroke="#D24D28" stroke-opacity="0.2" stroke-width="0.653586" stroke-miterlimit="10"/>
<path d="M1079.69 2.0625V775.137" stroke="#D24D28" stroke-opacity="0.2" stroke-width="0.653586" stroke-miterlimit="10"/>
<path d="M899.739 388.85C800.374 388.85 719.787 301.888 719.787 194.585" stroke="#D24D28" stroke-opacity="0.2" stroke-width="0.653586" stroke-miterlimit="10"/>
<path d="M899.738 0.32666C999.129 0.32666 1079.69 87.2884 1079.69 194.592" stroke="#D24D28" stroke-opacity="0.2" stroke-width="0.653586" stroke-miterlimit="10"/>
<path d="M899.738 344.082C823.282 344.082 761.289 277.123 761.289 194.585" stroke="#D24D28" stroke-opacity="0.2" stroke-width="0.653586" stroke-miterlimit="10"/>
<path d="M899.738 45.0952C976.227 45.0952 1038.22 112.019 1038.22 194.592" stroke="#D24D28" stroke-opacity="0.2" stroke-width="0.653586" stroke-miterlimit="10"/>
<path d="M899.739 299.285C846.184 299.285 802.76 252.399 802.76 194.592" stroke="#D24D28" stroke-opacity="0.2" stroke-width="0.653586" stroke-miterlimit="10"/>
<path d="M899.738 89.8638C953.319 89.8638 996.75 136.749 996.75 194.592" stroke="#D24D28" stroke-opacity="0.2" stroke-width="0.653586" stroke-miterlimit="10"/>
<path d="M899.738 254.516C869.092 254.516 844.223 227.676 844.223 194.585" stroke="#D24D28" stroke-opacity="0.2" stroke-width="0.653586" stroke-miterlimit="10"/>
<path d="M899.738 134.661C930.418 134.661 955.254 161.472 955.254 194.592" stroke="#D24D28" stroke-opacity="0.2" stroke-width="0.653586" stroke-miterlimit="10"/>
<path d="M899.74 388.85C899.799 281.561 980.36 194.627 1079.74 194.563" stroke="#D24D28" stroke-opacity="0.2" stroke-width="0.653586" stroke-miterlimit="10"/>
<path d="M941.242 388.85C941.301 306.312 1003.31 239.431 1079.74 239.367" stroke="#D24D28" stroke-opacity="0.2" stroke-width="0.653586" stroke-miterlimit="10"/>
<path d="M982.777 388.85C982.836 331.057 1026.24 284.235 1079.75 284.171" stroke="#D24D28" stroke-opacity="0.2" stroke-width="0.653586" stroke-miterlimit="10"/>
<path d="M1024.28 388.85C1024.34 355.801 1049.16 329.066 1079.75 329.003" stroke="#D24D28" stroke-opacity="0.2" stroke-width="0.653586" stroke-miterlimit="10"/>
<path d="M899.766 0.32666C899.707 107.616 819.146 194.55 719.762 194.613" stroke="#D24D28" stroke-opacity="0.2" stroke-width="0.653586" stroke-miterlimit="10"/>
<path d="M858.269 0.32666C858.21 82.8645 796.198 149.746 719.768 149.809" stroke="#D24D28" stroke-opacity="0.2" stroke-width="0.653586" stroke-miterlimit="10"/>
<path d="M816.734 0.32666C816.675 58.1201 773.271 104.942 719.762 105.005" stroke="#D24D28" stroke-opacity="0.2" stroke-width="0.653586" stroke-miterlimit="10"/>
<path d="M775.232 0.32666C775.173 33.3757 750.35 60.1098 719.762 60.1733" stroke="#D24D28" stroke-opacity="0.2" stroke-width="0.653586" stroke-miterlimit="10"/>
<path d="M720.611 194.592H1078.9" stroke="#D24D28" stroke-opacity="0.2" stroke-width="0.653586" stroke-miterlimit="10"/>
<path d="M899.752 1.19482V387.983" stroke="#D24D28" stroke-opacity="0.2" stroke-width="0.653586" stroke-miterlimit="10"/>
<path d="M1259.72 388.851C1160.36 388.851 1079.77 301.889 1079.77 194.585" stroke="#D24D28" stroke-opacity="0.2" stroke-width="0.653586" stroke-miterlimit="10"/>
<path d="M1259.72 0.327148C1359.11 0.327148 1439.67 87.2889 1439.67 194.592" stroke="#D24D28" stroke-opacity="0.2" stroke-width="0.653586" stroke-miterlimit="10"/>
<path d="M1259.72 344.082C1183.26 344.082 1121.27 277.123 1121.27 194.585" stroke="#D24D28" stroke-opacity="0.2" stroke-width="0.653586" stroke-miterlimit="10"/>
<path d="M1259.72 45.0957C1336.21 45.0957 1398.2 112.019 1398.2 194.592" stroke="#D24D28" stroke-opacity="0.2" stroke-width="0.653586" stroke-miterlimit="10"/>
<path d="M1259.72 299.285C1206.17 299.285 1162.74 252.4 1162.74 194.592" stroke="#D24D28" stroke-opacity="0.2" stroke-width="0.653586" stroke-miterlimit="10"/>
<path d="M1259.72 89.8643C1313.3 89.8643 1356.73 136.75 1356.73 194.592" stroke="#D24D28" stroke-opacity="0.2" stroke-width="0.653586" stroke-miterlimit="10"/>
<path d="M1259.72 254.517C1229.07 254.517 1204.21 227.677 1204.21 194.585" stroke="#D24D28" stroke-opacity="0.2" stroke-width="0.653586" stroke-miterlimit="10"/>
<path d="M1259.72 134.661C1290.4 134.661 1315.24 161.473 1315.24 194.592" stroke="#D24D28" stroke-opacity="0.2" stroke-width="0.653586" stroke-miterlimit="10"/>
<path d="M1259.72 388.85C1259.78 281.561 1340.34 194.627 1439.72 194.564" stroke="#D24D28" stroke-opacity="0.2" stroke-width="0.653586" stroke-miterlimit="10"/>
<path d="M1301.22 388.85C1301.28 306.312 1363.29 239.431 1439.72 239.368" stroke="#D24D28" stroke-opacity="0.2" stroke-width="0.653586" stroke-miterlimit="10"/>
<path d="M1342.75 388.851C1342.81 331.057 1386.22 284.235 1439.72 284.172" stroke="#D24D28" stroke-opacity="0.2" stroke-width="0.653586" stroke-miterlimit="10"/>
<path d="M1384.26 388.851C1384.31 355.802 1409.14 329.067 1439.73 329.004" stroke="#D24D28" stroke-opacity="0.2" stroke-width="0.653586" stroke-miterlimit="10"/>
<path d="M1259.75 0.327148C1259.69 107.616 1179.13 194.55 1079.74 194.614" stroke="#D24D28" stroke-opacity="0.2" stroke-width="0.653586" stroke-miterlimit="10"/>
<path d="M1218.24 0.327148C1218.18 82.865 1156.17 149.746 1079.74 149.81" stroke="#D24D28" stroke-opacity="0.2" stroke-width="0.653586" stroke-miterlimit="10"/>
<path d="M1176.71 0.327148C1176.66 58.1206 1133.25 104.942 1079.74 105.006" stroke="#D24D28" stroke-opacity="0.2" stroke-width="0.653586" stroke-miterlimit="10"/>
<path d="M1135.21 0.327148C1135.15 33.3762 1110.33 60.1103 1079.74 60.1738" stroke="#D24D28" stroke-opacity="0.2" stroke-width="0.653586" stroke-miterlimit="10"/>
<path d="M1080.59 194.592H1438.87" stroke="#D24D28" stroke-opacity="0.2" stroke-width="0.653586" stroke-miterlimit="10"/>
<path d="M1259.73 1.19482V387.983" stroke="#D24D28" stroke-opacity="0.2" stroke-width="0.653586" stroke-miterlimit="10"/>
<path d="M899.739 777C800.374 777 719.787 690.038 719.787 582.734" stroke="#D24D28" stroke-opacity="0.2" stroke-width="0.653586" stroke-miterlimit="10"/>
<path d="M899.738 388.477C999.129 388.477 1079.69 475.438 1079.69 582.742" stroke="#D24D28" stroke-opacity="0.2" stroke-width="0.653586" stroke-miterlimit="10"/>
<path d="M899.738 732.231C823.282 732.231 761.289 665.272 761.289 582.734" stroke="#D24D28" stroke-opacity="0.2" stroke-width="0.653586" stroke-miterlimit="10"/>
<path d="M899.738 433.238C976.227 433.238 1038.22 500.161 1038.22 582.734" stroke="#D24D28" stroke-opacity="0.2" stroke-width="0.653586" stroke-miterlimit="10"/>
<path d="M899.739 687.427C846.184 687.427 802.76 640.542 802.76 582.734" stroke="#D24D28" stroke-opacity="0.2" stroke-width="0.653586" stroke-miterlimit="10"/>
<path d="M899.738 478.006C953.319 478.006 996.75 524.892 996.75 582.734" stroke="#D24D28" stroke-opacity="0.2" stroke-width="0.653586" stroke-miterlimit="10"/>
<path d="M899.738 642.666C869.092 642.666 844.223 615.826 844.223 582.734" stroke="#D24D28" stroke-opacity="0.2" stroke-width="0.653586" stroke-miterlimit="10"/>
<path d="M899.738 522.811C930.418 522.811 955.254 549.622 955.254 582.742" stroke="#D24D28" stroke-opacity="0.2" stroke-width="0.653586" stroke-miterlimit="10"/>
<path d="M899.74 777C899.799 669.711 980.36 582.777 1079.74 582.714" stroke="#D24D28" stroke-opacity="0.2" stroke-width="0.653586" stroke-miterlimit="10"/>
<path d="M941.242 777C941.301 694.462 1003.31 627.581 1079.74 627.518" stroke="#D24D28" stroke-opacity="0.2" stroke-width="0.653586" stroke-miterlimit="10"/>
<path d="M982.777 777C982.836 719.207 1026.24 672.385 1079.75 672.321" stroke="#D24D28" stroke-opacity="0.2" stroke-width="0.653586" stroke-miterlimit="10"/>
<path d="M1024.28 777C1024.34 743.951 1049.16 717.217 1079.75 717.154" stroke="#D24D28" stroke-opacity="0.2" stroke-width="0.653586" stroke-miterlimit="10"/>
<path d="M899.766 388.477C899.707 495.766 819.146 582.699 719.762 582.763" stroke="#D24D28" stroke-opacity="0.2" stroke-width="0.653586" stroke-miterlimit="10"/>
<path d="M858.269 388.477C858.21 471.014 796.198 537.896 719.768 537.959" stroke="#D24D28" stroke-opacity="0.2" stroke-width="0.653586" stroke-miterlimit="10"/>
<path d="M816.734 388.477C816.675 446.27 773.271 493.092 719.762 493.155" stroke="#D24D28" stroke-opacity="0.2" stroke-width="0.653586" stroke-miterlimit="10"/>
<path d="M775.232 388.477C775.173 421.526 750.35 448.26 719.762 448.323" stroke="#D24D28" stroke-opacity="0.2" stroke-width="0.653586" stroke-miterlimit="10"/>
<path d="M720.611 582.735H1078.9" stroke="#D24D28" stroke-opacity="0.2" stroke-width="0.653586" stroke-miterlimit="10"/>
<path d="M899.752 389.345V776.125" stroke="#D24D28" stroke-opacity="0.2" stroke-width="0.653586" stroke-miterlimit="10"/>
<path d="M1259.72 777C1160.36 777 1079.77 690.038 1079.77 582.735" stroke="#D24D28" stroke-opacity="0.2" stroke-width="0.653586" stroke-miterlimit="10"/>
<path d="M1259.72 388.477C1359.11 388.477 1439.67 475.438 1439.67 582.742" stroke="#D24D28" stroke-opacity="0.2" stroke-width="0.653586" stroke-miterlimit="10"/>
<path d="M1259.72 732.231C1183.26 732.231 1121.27 665.273 1121.27 582.735" stroke="#D24D28" stroke-opacity="0.2" stroke-width="0.653586" stroke-miterlimit="10"/>
<path d="M1259.72 433.238C1336.21 433.238 1398.2 500.162 1398.2 582.735" stroke="#D24D28" stroke-opacity="0.2" stroke-width="0.653586" stroke-miterlimit="10"/>
<path d="M1259.72 687.428C1206.17 687.428 1162.74 640.542 1162.74 582.735" stroke="#D24D28" stroke-opacity="0.2" stroke-width="0.653586" stroke-miterlimit="10"/>
<path d="M1259.72 478.007C1313.3 478.007 1356.73 524.892 1356.73 582.735" stroke="#D24D28" stroke-opacity="0.2" stroke-width="0.653586" stroke-miterlimit="10"/>
<path d="M1259.72 642.666C1229.07 642.666 1204.21 615.826 1204.21 582.735" stroke="#D24D28" stroke-opacity="0.2" stroke-width="0.653586" stroke-miterlimit="10"/>
<path d="M1259.72 522.811C1290.4 522.811 1315.24 549.623 1315.24 582.742" stroke="#D24D28" stroke-opacity="0.2" stroke-width="0.653586" stroke-miterlimit="10"/>
<path d="M1259.72 777C1259.78 669.711 1340.34 582.777 1439.72 582.714" stroke="#D24D28" stroke-opacity="0.2" stroke-width="0.653586" stroke-miterlimit="10"/>
<path d="M1301.22 777C1301.28 694.462 1363.29 627.581 1439.72 627.518" stroke="#D24D28" stroke-opacity="0.2" stroke-width="0.653586" stroke-miterlimit="10"/>
<path d="M1342.75 777C1342.81 719.207 1386.22 672.385 1439.72 672.321" stroke="#D24D28" stroke-opacity="0.2" stroke-width="0.653586" stroke-miterlimit="10"/>
<path d="M1384.26 777C1384.31 743.951 1409.14 717.217 1439.73 717.154" stroke="#D24D28" stroke-opacity="0.2" stroke-width="0.653586" stroke-miterlimit="10"/>
<path d="M1259.75 388.477C1259.69 495.766 1179.13 582.699 1079.74 582.763" stroke="#D24D28" stroke-opacity="0.2" stroke-width="0.653586" stroke-miterlimit="10"/>
<path d="M1218.24 388.477C1218.18 471.014 1156.17 537.896 1079.74 537.959" stroke="#D24D28" stroke-opacity="0.2" stroke-width="0.653586" stroke-miterlimit="10"/>
<path d="M1176.71 388.477C1176.66 446.27 1133.25 493.092 1079.74 493.155" stroke="#D24D28" stroke-opacity="0.2" stroke-width="0.653586" stroke-miterlimit="10"/>
<path d="M1135.21 388.477C1135.15 421.526 1110.33 448.26 1079.74 448.323" stroke="#D24D28" stroke-opacity="0.2" stroke-width="0.653586" stroke-miterlimit="10"/>
<path d="M1080.59 582.735H1438.87" stroke="#D24D28" stroke-opacity="0.2" stroke-width="0.653586" stroke-miterlimit="10"/>
<path d="M1259.73 389.345V776.125" stroke="#D24D28" stroke-opacity="0.2" stroke-width="0.653586" stroke-miterlimit="10"/>
</g>
<defs>
<clipPath id="clip0_210_9580">
<rect width="1440" height="728" fill="white"/>
</clipPath>
</defs>
</svg>
