<svg width="720" height="724" viewBox="0 0 720 724" fill="none" xmlns="http://www.w3.org/2000/svg">
<g clip-path="url(#clip0_210_9941)">
<path d="M180.597 362.425C81.4842 362.425 1.10156 281.525 1.10156 181.702" stroke="#D24D28" stroke-opacity="0.2" stroke-width="0.785896" stroke-miterlimit="10"/>
<path d="M180.598 0.986328C279.736 0.986328 360.093 81.8857 360.093 181.709" stroke="#D24D28" stroke-opacity="0.2" stroke-width="0.785896" stroke-miterlimit="10"/>
<path d="M180.595 320.777C104.332 320.777 42.4971 258.486 42.4971 181.702" stroke="#D24D28" stroke-opacity="0.2" stroke-width="0.785896" stroke-miterlimit="10"/>
<path d="M180.598 42.6338C256.893 42.6338 318.728 104.892 318.728 181.709" stroke="#D24D28" stroke-opacity="0.2" stroke-width="0.785896" stroke-miterlimit="10"/>
<path d="M180.596 279.103C127.177 279.103 83.8633 235.487 83.8633 181.709" stroke="#D24D28" stroke-opacity="0.2" stroke-width="0.785896" stroke-miterlimit="10"/>
<path d="M180.598 84.2812C234.043 84.2812 277.363 127.898 277.363 181.708" stroke="#D24D28" stroke-opacity="0.2" stroke-width="0.785896" stroke-miterlimit="10"/>
<path d="M180.597 237.456C150.028 237.456 125.222 212.487 125.222 181.702" stroke="#D24D28" stroke-opacity="0.2" stroke-width="0.785896" stroke-miterlimit="10"/>
<path d="M180.598 125.955C211.2 125.955 235.973 150.898 235.973 181.709" stroke="#D24D28" stroke-opacity="0.2" stroke-width="0.785896" stroke-miterlimit="10"/>
<path d="M180.6 362.425C180.658 262.615 261.015 181.742 360.147 181.683" stroke="#D24D28" stroke-opacity="0.2" stroke-width="0.785896" stroke-miterlimit="10"/>
<path d="M221.998 362.425C222.057 285.641 283.912 223.422 360.148 223.363" stroke="#D24D28" stroke-opacity="0.2" stroke-width="0.785896" stroke-miterlimit="10"/>
<path d="M263.428 362.424C263.486 308.66 306.781 265.102 360.154 265.043" stroke="#D24D28" stroke-opacity="0.2" stroke-width="0.785896" stroke-miterlimit="10"/>
<path d="M304.822 362.425C304.881 331.68 329.642 306.809 360.152 306.75" stroke="#D24D28" stroke-opacity="0.2" stroke-width="0.785896" stroke-miterlimit="10"/>
<path d="M180.625 0.986328C180.566 100.796 100.209 181.669 1.07715 181.728" stroke="#D24D28" stroke-opacity="0.2" stroke-width="0.785896" stroke-miterlimit="10"/>
<path d="M139.233 0.986328C139.174 77.7702 77.3195 139.989 1.08301 140.048" stroke="#D24D28" stroke-opacity="0.2" stroke-width="0.785896" stroke-miterlimit="10"/>
<path d="M97.8037 0.986328C97.745 54.7508 54.4505 98.3085 1.07715 98.3676" stroke="#D24D28" stroke-opacity="0.2" stroke-width="0.785896" stroke-miterlimit="10"/>
<path d="M56.4071 0.986328C56.3484 31.7318 31.5878 56.6026 1.07715 56.6617" stroke="#D24D28" stroke-opacity="0.2" stroke-width="0.785896" stroke-miterlimit="10"/>
<path d="M1.9248 181.709H359.305" stroke="#D24D28" stroke-opacity="0.2" stroke-width="0.785896" stroke-miterlimit="10"/>
<path d="M180.611 1.79395V361.618" stroke="#D24D28" stroke-opacity="0.2" stroke-width="0.785896" stroke-miterlimit="10"/>
<path d="M539.665 362.425C440.553 362.425 360.17 281.525 360.17 181.702" stroke="#D24D28" stroke-opacity="0.2" stroke-width="0.785896" stroke-miterlimit="10"/>
<path d="M539.666 0.986328C638.805 0.986328 719.161 81.8857 719.161 181.709" stroke="#D24D28" stroke-opacity="0.2" stroke-width="0.785896" stroke-miterlimit="10"/>
<path d="M539.666 320.777C463.404 320.777 401.568 258.486 401.568 181.702" stroke="#D24D28" stroke-opacity="0.2" stroke-width="0.785896" stroke-miterlimit="10"/>
<path d="M539.666 42.6338C615.961 42.6338 677.796 104.892 677.796 181.709" stroke="#D24D28" stroke-opacity="0.2" stroke-width="0.785896" stroke-miterlimit="10"/>
<path d="M539.665 279.102C486.246 279.102 442.932 235.486 442.932 181.708" stroke="#D24D28" stroke-opacity="0.2" stroke-width="0.785896" stroke-miterlimit="10"/>
<path d="M539.666 84.2812C593.111 84.2812 636.432 127.898 636.432 181.708" stroke="#D24D28" stroke-opacity="0.2" stroke-width="0.785896" stroke-miterlimit="10"/>
<path d="M539.667 237.456C509.097 237.456 484.291 212.487 484.291 181.702" stroke="#D24D28" stroke-opacity="0.2" stroke-width="0.785896" stroke-miterlimit="10"/>
<path d="M539.666 125.955C570.268 125.955 595.042 150.898 595.042 181.709" stroke="#D24D28" stroke-opacity="0.2" stroke-width="0.785896" stroke-miterlimit="10"/>
<path d="M539.666 362.425C539.725 262.615 620.081 181.742 719.213 181.683" stroke="#D24D28" stroke-opacity="0.2" stroke-width="0.785896" stroke-miterlimit="10"/>
<path d="M581.064 362.425C581.123 285.641 642.978 223.422 719.215 223.363" stroke="#D24D28" stroke-opacity="0.2" stroke-width="0.785896" stroke-miterlimit="10"/>
<path d="M622.488 362.424C622.547 308.66 665.842 265.102 719.215 265.043" stroke="#D24D28" stroke-opacity="0.2" stroke-width="0.785896" stroke-miterlimit="10"/>
<path d="M663.885 362.425C663.943 331.68 688.704 306.809 719.215 306.75" stroke="#D24D28" stroke-opacity="0.2" stroke-width="0.785896" stroke-miterlimit="10"/>
<path d="M539.692 0.986328C539.633 100.796 459.277 181.669 360.145 181.728" stroke="#D24D28" stroke-opacity="0.2" stroke-width="0.785896" stroke-miterlimit="10"/>
<path d="M498.295 0.986328C498.236 77.7702 436.381 139.989 360.145 140.048" stroke="#D24D28" stroke-opacity="0.2" stroke-width="0.785896" stroke-miterlimit="10"/>
<path d="M456.871 0.986328C456.812 54.7508 413.518 98.3085 360.145 98.3676" stroke="#D24D28" stroke-opacity="0.2" stroke-width="0.785896" stroke-miterlimit="10"/>
<path d="M415.474 0.986328C415.416 31.7318 390.655 56.6026 360.145 56.6617" stroke="#D24D28" stroke-opacity="0.2" stroke-width="0.785896" stroke-miterlimit="10"/>
<path d="M360.992 181.709H718.366" stroke="#D24D28" stroke-opacity="0.2" stroke-width="0.785896" stroke-miterlimit="10"/>
<path d="M539.68 1.79395V361.618" stroke="#D24D28" stroke-opacity="0.2" stroke-width="0.785896" stroke-miterlimit="10"/>
<path d="M180.597 723.515C81.4842 723.515 1.10156 642.616 1.10156 542.793" stroke="#D24D28" stroke-opacity="0.2" stroke-width="0.785896" stroke-miterlimit="10"/>
<path d="M180.598 362.077C279.736 362.077 360.093 442.977 360.093 542.8" stroke="#D24D28" stroke-opacity="0.2" stroke-width="0.785896" stroke-miterlimit="10"/>
<path d="M180.597 681.868C104.334 681.868 42.499 619.577 42.499 542.793" stroke="#D24D28" stroke-opacity="0.2" stroke-width="0.785896" stroke-miterlimit="10"/>
<path d="M180.598 403.718C256.893 403.718 318.728 465.976 318.728 542.793" stroke="#D24D28" stroke-opacity="0.2" stroke-width="0.785896" stroke-miterlimit="10"/>
<path d="M180.596 640.187C127.177 640.187 83.8633 596.571 83.8633 542.793" stroke="#D24D28" stroke-opacity="0.2" stroke-width="0.785896" stroke-miterlimit="10"/>
<path d="M180.598 445.366C234.043 445.366 277.363 488.983 277.363 542.793" stroke="#D24D28" stroke-opacity="0.2" stroke-width="0.785896" stroke-miterlimit="10"/>
<path d="M180.597 598.547C150.028 598.547 125.222 573.578 125.222 542.793" stroke="#D24D28" stroke-opacity="0.2" stroke-width="0.785896" stroke-miterlimit="10"/>
<path d="M180.598 487.046C211.2 487.046 235.973 511.989 235.973 542.8" stroke="#D24D28" stroke-opacity="0.2" stroke-width="0.785896" stroke-miterlimit="10"/>
<path d="M180.598 723.516C180.656 623.706 261.013 542.833 360.145 542.773" stroke="#D24D28" stroke-opacity="0.2" stroke-width="0.785896" stroke-miterlimit="10"/>
<path d="M221.996 723.516C222.055 646.732 283.91 584.513 360.146 584.454" stroke="#D24D28" stroke-opacity="0.2" stroke-width="0.785896" stroke-miterlimit="10"/>
<path d="M263.426 723.515C263.484 669.751 306.779 626.193 360.152 626.134" stroke="#D24D28" stroke-opacity="0.2" stroke-width="0.785896" stroke-miterlimit="10"/>
<path d="M304.82 723.516C304.879 692.771 329.64 667.9 360.15 667.841" stroke="#D24D28" stroke-opacity="0.2" stroke-width="0.785896" stroke-miterlimit="10"/>
<path d="M180.625 362.077C180.566 461.887 100.209 542.76 1.07715 542.819" stroke="#D24D28" stroke-opacity="0.2" stroke-width="0.785896" stroke-miterlimit="10"/>
<path d="M139.233 362.077C139.174 438.861 77.3195 501.08 1.08301 501.139" stroke="#D24D28" stroke-opacity="0.2" stroke-width="0.785896" stroke-miterlimit="10"/>
<path d="M97.8037 362.077C97.745 415.842 54.4505 459.399 1.07715 459.458" stroke="#D24D28" stroke-opacity="0.2" stroke-width="0.785896" stroke-miterlimit="10"/>
<path d="M56.4071 362.077C56.3484 392.823 31.5878 417.693 1.07715 417.753" stroke="#D24D28" stroke-opacity="0.2" stroke-width="0.785896" stroke-miterlimit="10"/>
<path d="M1.9248 542.793H359.305" stroke="#D24D28" stroke-opacity="0.2" stroke-width="0.785896" stroke-miterlimit="10"/>
<path d="M180.611 362.885V722.702" stroke="#D24D28" stroke-opacity="0.2" stroke-width="0.785896" stroke-miterlimit="10"/>
<path d="M539.665 723.516C440.553 723.516 360.17 642.617 360.17 542.794" stroke="#D24D28" stroke-opacity="0.2" stroke-width="0.785896" stroke-miterlimit="10"/>
<path d="M539.666 362.078C638.805 362.078 719.161 442.978 719.161 542.801" stroke="#D24D28" stroke-opacity="0.2" stroke-width="0.785896" stroke-miterlimit="10"/>
<path d="M539.666 681.869C463.404 681.869 401.568 619.578 401.568 542.794" stroke="#D24D28" stroke-opacity="0.2" stroke-width="0.785896" stroke-miterlimit="10"/>
<path d="M539.666 403.719C615.961 403.719 677.796 465.977 677.796 542.794" stroke="#D24D28" stroke-opacity="0.2" stroke-width="0.785896" stroke-miterlimit="10"/>
<path d="M539.665 640.188C486.246 640.188 442.932 596.572 442.932 542.794" stroke="#D24D28" stroke-opacity="0.2" stroke-width="0.785896" stroke-miterlimit="10"/>
<path d="M539.666 445.367C593.111 445.367 636.432 488.984 636.432 542.794" stroke="#D24D28" stroke-opacity="0.2" stroke-width="0.785896" stroke-miterlimit="10"/>
<path d="M539.667 598.548C509.097 598.548 484.291 573.579 484.291 542.794" stroke="#D24D28" stroke-opacity="0.2" stroke-width="0.785896" stroke-miterlimit="10"/>
<path d="M539.666 487.047C570.268 487.047 595.042 511.99 595.042 542.801" stroke="#D24D28" stroke-opacity="0.2" stroke-width="0.785896" stroke-miterlimit="10"/>
<path d="M539.664 723.516C539.723 623.706 620.079 542.833 719.212 542.773" stroke="#D24D28" stroke-opacity="0.2" stroke-width="0.785896" stroke-miterlimit="10"/>
<path d="M581.062 723.516C581.121 646.732 642.976 584.513 719.213 584.454" stroke="#D24D28" stroke-opacity="0.2" stroke-width="0.785896" stroke-miterlimit="10"/>
<path d="M622.486 723.515C622.545 669.751 665.84 626.193 719.213 626.134" stroke="#D24D28" stroke-opacity="0.2" stroke-width="0.785896" stroke-miterlimit="10"/>
<path d="M663.883 723.516C663.941 692.771 688.702 667.9 719.213 667.841" stroke="#D24D28" stroke-opacity="0.2" stroke-width="0.785896" stroke-miterlimit="10"/>
<path d="M539.692 362.077C539.633 461.887 459.277 542.76 360.145 542.819" stroke="#D24D28" stroke-opacity="0.2" stroke-width="0.785896" stroke-miterlimit="10"/>
<path d="M498.295 362.077C498.236 438.861 436.381 501.08 360.145 501.139" stroke="#D24D28" stroke-opacity="0.2" stroke-width="0.785896" stroke-miterlimit="10"/>
<path d="M456.871 362.077C456.812 415.842 413.518 459.399 360.145 459.458" stroke="#D24D28" stroke-opacity="0.2" stroke-width="0.785896" stroke-miterlimit="10"/>
<path d="M415.474 362.077C415.416 392.823 390.655 417.693 360.145 417.753" stroke="#D24D28" stroke-opacity="0.2" stroke-width="0.785896" stroke-miterlimit="10"/>
<path d="M360.992 542.793H718.366" stroke="#D24D28" stroke-opacity="0.2" stroke-width="0.785896" stroke-miterlimit="10"/>
<path d="M539.68 362.885V722.702" stroke="#D24D28" stroke-opacity="0.2" stroke-width="0.785896" stroke-miterlimit="10"/>
</g>
<defs>
<clipPath id="clip0_210_9941">
<rect width="720" height="724" fill="white"/>
</clipPath>
</defs>
</svg>
