<svg width="17" height="21" viewBox="0 0 17 21" fill="none" xmlns="http://www.w3.org/2000/svg">
<path d="M12.25 14.5234C12.7578 14.2109 12.9141 13.3516 13.3438 12.8828C13.8125 12.4531 14.6719 12.3359 14.9844 11.7891C15.2969 11.2422 14.9844 10.4219 15.1406 9.79688C15.2969 9.21094 15.9609 8.66406 15.9609 8C15.9609 7.375 15.2578 6.82812 15.1016 6.24219C14.9453 5.61719 15.2578 4.79688 14.9453 4.25C14.6328 3.70312 13.7734 3.58594 13.3438 3.15625C12.875 2.6875 12.7578 1.82812 12.2109 1.51562C11.6641 1.20312 10.8438 1.51562 10.2188 1.35938C9.67188 1.20312 9.125 0.5 8.5 0.5C7.83594 0.5 7.28906 1.20312 6.70312 1.35938C6.07812 1.51562 5.25781 1.20312 4.71094 1.51562C4.20312 1.82812 4.04688 2.6875 3.61719 3.15625C3.14844 3.58594 2.28906 3.70312 1.97656 4.25C1.66406 4.79688 1.97656 5.61719 1.82031 6.24219C1.66406 6.82812 1 7.375 1 8C1 8.66406 1.66406 9.21094 1.82031 9.79688C1.97656 10.4219 1.66406 11.2422 1.97656 11.7891C2.28906 12.2969 3.14844 12.4531 3.61719 12.8828C4.04688 13.3516 4.16406 14.2109 4.71094 14.5234C5.25781 14.8359 6.07812 14.5234 6.70312 14.6797C7.28906 14.8359 7.83594 15.5 8.5 15.5C9.125 15.5 9.67188 14.8359 10.2578 14.6797C10.8828 14.5234 11.7031 14.8359 12.25 14.5234ZM5.375 8C5.375 6.28125 6.74219 4.875 8.5 4.875C10.2188 4.875 11.625 6.28125 11.625 8C11.625 9.75781 10.2188 11.125 8.5 11.125C6.74219 11.125 5.375 9.75781 5.375 8ZM1.03906 17.4531C0.921875 17.7656 0.960938 18.1172 1.19531 18.3906C1.42969 18.6641 1.78125 18.7812 2.09375 18.7031L3.85156 18.3516L4.71094 19.9922C4.86719 20.3047 5.17969 20.5 5.53125 20.5C5.57031 20.5 5.57031 20.5 5.57031 20.5C5.96094 20.5 6.27344 20.2656 6.39062 19.9531L7.71875 16.75C5.60938 16.5547 3.73438 15.6172 2.32812 14.25L1.03906 17.4531ZM14.6328 14.25C13.2266 15.6172 11.3516 16.5547 9.24219 16.75L10.5312 19.9531C10.6875 20.2656 11 20.5 11.3906 20.5391C11.3906 20.5 11.3906 20.5 11.4297 20.5C11.7812 20.5 12.0938 20.3438 12.25 19.9922L13.1094 18.3516L14.8672 18.7031C15.1797 18.7812 15.5312 18.6641 15.7656 18.3906C16 18.1172 16.0391 17.7656 15.9219 17.4531L14.6328 14.25Z" fill="#9E7EB9"/>
</svg>
