<svg width="21" height="15" viewBox="0 0 21 15" fill="none" xmlns="http://www.w3.org/2000/svg">
<path d="M11.6035 3.20312V1.875H12.2285C12.7363 1.875 13.166 1.48438 13.166 0.9375C13.166 0.429688 12.7363 0 12.2285 0H9.06445C8.55664 0 8.16602 0.429688 8.16602 0.9375C8.16602 1.40625 8.55664 1.875 9.06445 1.875H9.72852V3.20312C5.31445 3.67188 1.91602 7.38281 1.91602 11.875H19.416C19.416 7.38281 15.9785 3.67188 11.6035 3.20312ZM19.7285 13.125H1.60352C1.05664 13.125 0.666016 13.5547 0.666016 14.0625C0.666016 14.6094 1.05664 15 1.56445 15H19.6895C20.1973 15 20.627 14.6094 20.627 14.1016C20.666 13.5547 20.2363 13.125 19.7285 13.125Z" fill="#9E7EB9"/>
</svg>
