<svg width="15" height="21" viewBox="0 0 15 21" fill="none" xmlns="http://www.w3.org/2000/svg">
<path d="M13.125 3H11.0156C10.4688 1.55469 9.10156 0.5 7.5 0.5C5.85938 0.5 4.49219 1.55469 3.94531 3H1.875C0.820312 3 0 3.85938 0 4.875V18.625C0 19.6797 0.820312 20.5 1.875 20.5H13.125C14.1406 20.5 15 19.6797 15 18.625V4.875C15 3.85938 14.1406 3 13.125 3ZM7.5 3C8.16406 3 8.75 3.58594 8.75 4.25C8.75 4.95312 8.16406 5.5 7.5 5.5C6.79688 5.5 6.25 4.95312 6.25 4.25C6.25 3.58594 6.79688 3 7.5 3ZM10.625 9.25H4.375C4.02344 9.25 3.75 8.97656 3.75 8.625C3.75 8.3125 4.02344 8 4.375 8H10.625C10.9375 8 11.25 8.3125 11.25 8.625C11.25 8.97656 10.9375 9.25 10.625 9.25Z" fill="#9E7EB9"/>
</svg>
