<svg width="26" height="16" viewBox="0 0 26 16" fill="none" xmlns="http://www.w3.org/2000/svg">
<path d="M0.333984 12.5H2.83398C3.49805 12.5 4.08398 11.9531 4.08398 11.25V2.53906H0.333984V12.5ZM2.20898 10.0391C2.52148 10.0391 2.83398 10.3125 2.83398 10.6641C2.83398 10.9766 2.52148 11.2891 2.20898 11.2891C1.85742 11.2891 1.58398 10.9766 1.58398 10.6641C1.58398 10.3125 1.85742 10.0391 2.20898 10.0391ZM13.9277 0C13.6152 0 13.3418 0.117188 13.1074 0.351562L9.24023 3.86719C8.61523 4.49219 8.61523 5.46875 9.16211 6.05469C9.66992 6.5625 10.6855 6.75781 11.3496 6.17188C11.3496 6.17188 11.3496 6.17188 11.3887 6.17188L14.4746 3.32031C14.748 3.08594 15.1387 3.08594 15.373 3.35938C15.6074 3.59375 15.6074 3.98438 15.334 4.21875L14.3184 5.15625L20.0215 9.76562C20.0996 9.88281 20.2168 9.96094 20.2949 10.0781V2.5C18.6934 0.898438 16.5449 0 14.2793 0H13.9277ZM13.3809 6.01562L12.209 7.07031C11.0371 8.125 9.2793 8.04688 8.22461 6.91406C7.20898 5.78125 7.28711 3.98438 8.41992 2.92969L11.623 0H11.3496C9.08398 0 6.93555 0.9375 5.33398 2.5V11.25H6.03711L9.55273 14.4531C10.6465 15.3516 12.209 15.1562 13.0684 14.1016L13.7715 14.6875C14.3965 15.1562 15.334 15.1172 15.8418 14.4922L17.0527 12.9688L17.2871 13.1641C17.7949 13.5938 18.5762 13.5156 19.0449 12.9688L19.3965 12.5C19.8262 11.9531 19.748 11.1719 19.2012 10.7422L13.3809 6.01562ZM21.584 2.53906V11.25C21.584 11.9531 22.1309 12.5391 22.7949 12.5391L25.334 12.5V2.53906H21.584ZM23.459 11.25C23.1074 11.25 22.834 10.9766 22.834 10.6641C22.834 10.3125 23.1074 10.0391 23.459 10.0391C23.7715 10.0391 24.084 10.3125 24.084 10.6641C24.084 10.9766 23.7715 11.25 23.459 11.25Z" fill="#9E7EB9"/>
</svg>
