<svg width="14" height="15" viewBox="0 0 14 15" fill="currentColor" xmlns="http://www.w3.org/2000/svg">
<path d="M13 0.980469H0.96875C0.4375 0.980469 0 1.44922 0 2.01172V13.9805C0 14.543 0.4375 14.9805 0.96875 14.9805H13C13.5312 14.9805 14 14.543 14 13.9805V2.01172C14 1.44922 13.5312 0.980469 13 0.980469ZM4.21875 12.9805H2.15625V6.32422H4.21875V12.9805ZM3.1875 5.38672C2.5 5.38672 1.96875 4.85547 1.96875 4.19922C1.96875 3.54297 2.5 2.98047 3.1875 2.98047C3.84375 2.98047 4.375 3.54297 4.375 4.19922C4.375 4.85547 3.84375 5.38672 3.1875 5.38672ZM12 12.9805H9.90625V9.73047C9.90625 8.98047 9.90625 7.98047 8.84375 7.98047C7.75 7.98047 7.59375 8.82422 7.59375 9.69922V12.9805H5.53125V6.32422H7.5V7.23047H7.53125C7.8125 6.69922 8.5 6.13672 9.5 6.13672C11.5938 6.13672 12 7.54297 12 9.32422V12.9805Z" fill="white"/>
</svg>
