<svg width="23" height="15" viewBox="0 0 23 15" fill="none" xmlns="http://www.w3.org/2000/svg">
<path d="M17.209 0H9.86523C11.6621 1.25 12.834 3.32031 12.834 5.625V15H21.584C22.248 15 22.834 14.4531 22.834 13.7891V5.625C22.834 2.53906 20.2949 0 17.209 0ZM20.334 8.125C20.334 8.4375 20.0215 8.71094 19.709 8.71094H18.459C18.1074 8.71094 17.834 8.4375 17.834 8.125V6.25H15.959C15.6074 6.25 15.334 5.97656 15.334 5.66406C15.334 5.35156 15.6074 5.07812 15.959 5.07812H19.709C20.0215 5.07812 20.334 5.35156 20.334 5.66406V8.125ZM5.95898 0C2.83398 0 0.333984 2.53906 0.333984 5.625V13.75C0.333984 14.4141 0.880859 14.9609 1.58398 14.9609L11.584 15V5.625C11.584 2.53906 9.04492 0 5.95898 0ZM8.45898 6.25H3.45898C3.10742 6.25 2.83398 5.97656 2.83398 5.66406C2.83398 5.35156 3.10742 5.07812 3.45898 5.07812H8.45898C8.77148 5.07812 9.08398 5.35156 9.08398 5.66406C9.08398 5.97656 8.77148 6.25 8.45898 6.25Z" fill="#9E7EB9"/>
</svg>
