<svg width="21" height="21" viewBox="0 0 21 21" fill="none" xmlns="http://www.w3.org/2000/svg">
<path d="M19.416 8H18.166V3.54688C18.166 3.19531 18.0098 2.88281 17.7754 2.64844L16.0176 0.890625C15.7832 0.65625 15.4707 0.5 15.1191 0.5H4.41602C3.71289 0.5 3.16602 1.08594 3.16602 1.75V8H1.91602C1.21289 8 0.666016 8.58594 0.666016 9.25V10.5C0.666016 11.2031 1.21289 11.75 1.91602 11.75V18.625C1.91602 19.6797 2.73633 20.5 3.79102 20.5H17.541C18.5566 20.5 19.416 19.6797 19.416 18.625V11.75C20.0801 11.75 20.666 11.2031 20.666 10.5V9.25C20.666 8.58594 20.0801 8 19.416 8ZM5.66602 3H13.166V4.875C13.166 5.22656 13.4395 5.5 13.791 5.5H15.666V8H14.9238C14.5723 8 14.2598 8.15625 14.0254 8.39062L13.5176 8.89844C13.2832 9.13281 12.9707 9.25 12.6191 9.25H8.67383C8.32227 9.25 8.00977 9.13281 7.77539 8.89844L7.26758 8.39062C7.0332 8.15625 6.7207 8 6.36914 8H5.66602V3ZM15.041 12.0625V12.6875C15.041 12.8828 14.8848 13 14.7285 13H14.1035C13.9082 13 13.791 12.8828 13.791 12.6875V12.0625C13.791 11.9062 13.9082 11.75 14.1035 11.75H14.7285C14.8848 11.75 15.041 11.9062 15.041 12.0625ZM12.541 14.5625C12.541 14.4062 12.6582 14.25 12.8535 14.25H13.4785C13.6348 14.25 13.791 14.4062 13.791 14.5625V15.1875C13.791 15.3828 13.6348 15.5 13.4785 15.5H12.8535C12.6582 15.5 12.541 15.3828 12.541 15.1875V14.5625ZM12.2285 13H11.6035C11.4082 13 11.291 12.8828 11.291 12.6875V12.0625C11.291 11.9062 11.4082 11.75 11.6035 11.75H12.2285C12.3848 11.75 12.541 11.9062 12.541 12.0625V12.6875C12.541 12.8828 12.3848 13 12.2285 13ZM10.041 14.5625C10.041 14.4062 10.1582 14.25 10.3535 14.25H10.9785C11.1348 14.25 11.291 14.4062 11.291 14.5625V15.1875C11.291 15.3828 11.1348 15.5 10.9785 15.5H10.3535C10.1582 15.5 10.041 15.3828 10.041 15.1875V14.5625ZM9.72852 13H9.10352C8.9082 13 8.79102 12.8828 8.79102 12.6875V12.0625C8.79102 11.9062 8.9082 11.75 9.10352 11.75H9.72852C9.88477 11.75 10.041 11.9062 10.041 12.0625V12.6875C10.041 12.8828 9.88477 13 9.72852 13ZM7.54102 14.5625C7.54102 14.4062 7.6582 14.25 7.85352 14.25H8.47852C8.63477 14.25 8.79102 14.4062 8.79102 14.5625V15.1875C8.79102 15.3828 8.63477 15.5 8.47852 15.5H7.85352C7.6582 15.5 7.54102 15.3828 7.54102 15.1875V14.5625ZM7.22852 13H6.60352C6.4082 13 6.29102 12.8828 6.29102 12.6875V12.0625C6.29102 11.9062 6.4082 11.75 6.60352 11.75H7.22852C7.38477 11.75 7.54102 11.9062 7.54102 12.0625V12.6875C7.54102 12.8828 7.38477 13 7.22852 13ZM4.72852 13H4.10352C3.9082 13 3.79102 12.8828 3.79102 12.6875V12.0625C3.79102 11.9062 3.9082 11.75 4.10352 11.75H4.72852C4.88477 11.75 5.04102 11.9062 5.04102 12.0625V12.6875C5.04102 12.8828 4.88477 13 4.72852 13ZM5.97852 15.5H5.35352C5.1582 15.5 5.04102 15.3828 5.04102 15.1875V14.5625C5.04102 14.4062 5.1582 14.25 5.35352 14.25H5.97852C6.13477 14.25 6.29102 14.4062 6.29102 14.5625V15.1875C6.29102 15.3828 6.13477 15.5 5.97852 15.5ZM15.041 17.6875C15.041 17.8828 14.8848 18 14.7285 18H6.60352C6.4082 18 6.29102 17.8828 6.29102 17.6875V17.0625C6.29102 16.9062 6.4082 16.75 6.60352 16.75H14.7285C14.8848 16.75 15.041 16.9062 15.041 17.0625V17.6875ZM16.291 15.1875C16.291 15.3828 16.1348 15.5 15.9785 15.5H15.3535C15.1582 15.5 15.041 15.3828 15.041 15.1875V14.5625C15.041 14.4062 15.1582 14.25 15.3535 14.25H15.9785C16.1348 14.25 16.291 14.4062 16.291 14.5625V15.1875ZM17.541 12.6875C17.541 12.8828 17.3848 13 17.2285 13H16.6035C16.4082 13 16.291 12.8828 16.291 12.6875V12.0625C16.291 11.9062 16.4082 11.75 16.6035 11.75H17.2285C17.3848 11.75 17.541 11.9062 17.541 12.0625V12.6875Z" fill="#9E7EB9"/>
</svg>
