<svg width="200" height="48" viewBox="0 0 200 48" fill="none" xmlns="http://www.w3.org/2000/svg">
<g clip-path="url(#clip0_210_10071)">
<path d="M79.1263 31.0144C79.0606 28.8741 78.9833 26.6753 78.8936 24.417C78.8007 22.0585 78.6588 19.7429 78.472 17.5315L78.377 16.4045L77.9356 17.4261C77.7519 17.8509 77.5359 18.3601 77.2855 18.9518C77.035 19.5435 76.7689 20.1864 76.485 20.8803C76.2012 21.5743 75.9132 22.2913 75.621 23.0301L74.7715 25.1757C74.497 25.8686 74.2414 26.5156 74.0087 27.1167L73.874 27.4621C73.6371 28.0705 73.0955 28.465 72.4955 28.465C71.8923 28.465 71.3496 28.0684 71.1138 27.4538L70.9802 27.1042C70.7465 26.4947 70.4929 25.8425 70.2174 25.1496L69.3679 23.004C69.0757 22.2641 68.7877 21.5503 68.5038 20.8657L67.7045 18.9404C67.453 18.3372 67.2359 17.831 67.0512 17.422L66.6087 16.442L66.5169 17.5326C66.3301 19.7439 66.1881 22.0596 66.0953 24.418C66.0066 26.6763 65.9293 28.8751 65.8626 31.0155H63.334C63.3987 29.5305 63.4738 27.9985 63.5615 26.4175C63.6544 24.7207 63.7566 23.0374 63.8662 21.3666C63.9747 19.7147 64.0989 18.0815 64.2346 16.513C64.3609 15.0551 64.4955 13.6891 64.6343 12.4473H67.1326C67.4749 13.1131 67.8558 13.9187 68.2669 14.8485C68.7157 15.8618 69.1728 16.9263 69.6382 18.0408C70.1036 19.1564 70.5659 20.2897 71.023 21.4418C71.4811 22.596 71.9017 23.6615 72.2847 24.6403L72.5445 25.3019L74.0535 21.4397C74.5106 20.2678 74.9719 19.124 75.4248 18.0408C75.8902 16.9263 76.3473 15.8618 76.796 14.8485C77.2103 13.9135 77.5912 13.1068 77.9304 12.4473H80.3525C80.4923 13.758 80.628 15.1658 80.7543 16.6372C80.8899 18.213 81.0131 19.842 81.1227 21.4773C81.2322 23.1292 81.3345 24.7896 81.4274 26.4593C81.514 28.0142 81.5902 29.5326 81.6549 31.0155H79.1263V31.0144Z" fill="white"/>
<path d="M90.4466 31.3395C89.3405 31.3395 88.3668 31.1735 87.5539 30.8479C86.7482 30.5244 86.0772 30.0694 85.5596 29.4976C85.0389 28.9215 84.6465 28.2338 84.3939 27.4511C84.1383 26.6591 84.0078 25.7762 84.0078 24.8276C84.0078 23.7193 84.1737 22.7363 84.5004 21.9077C84.826 21.0812 85.2632 20.3862 85.8007 19.8414C86.336 19.2977 86.959 18.8813 87.653 18.6069C88.3491 18.3303 89.0702 18.1895 89.7975 18.1895C91.5048 18.1895 92.85 18.7217 93.7986 19.7694C94.7534 20.8276 95.2377 22.4451 95.2377 24.5771C95.2377 24.741 95.2335 24.9246 95.2251 25.1281C95.221 25.2304 95.2168 25.3275 95.2105 25.4193H86.5447L86.5687 25.724C86.6574 26.8438 87.0634 27.7277 87.7761 28.3507C88.4837 28.9685 89.5085 29.2826 90.8234 29.2826C91.2731 29.2826 92.2499 29.1208 93.0138 28.9695C93.0816 28.956 93.1484 28.9497 93.2142 28.9497C93.7141 28.9497 94.1346 29.3076 94.215 29.8012C94.2964 30.3053 93.9885 30.7937 93.5001 30.9346C93.2674 31.0024 93.0535 31.0598 92.9293 31.0848C92.563 31.1579 92.1643 31.2195 91.7407 31.2685C91.3201 31.3144 90.8849 31.3395 90.4466 31.3395ZM89.8226 20.1461C89.3133 20.1461 88.8594 20.2442 88.4722 20.4383C88.0903 20.6293 87.7626 20.8839 87.4975 21.1949C87.2345 21.5038 87.0289 21.8607 86.8849 22.2562C86.7451 22.6413 86.648 23.04 86.5948 23.4407L86.5531 23.76H92.779V23.4772C92.779 23.0347 92.7164 22.6069 92.5912 22.2072C92.4639 21.7981 92.275 21.4381 92.0276 21.1375C91.7772 20.8318 91.4683 20.5886 91.1083 20.4133C90.7451 20.2359 90.312 20.1461 89.8226 20.1461Z" fill="white"/>
<path d="M102.389 31.3144C101.497 31.3144 100.746 31.1954 100.158 30.9606C99.583 30.73 99.1228 30.395 98.7899 29.963C98.4507 29.5247 98.2075 28.981 98.0677 28.3496C97.9227 27.6984 97.8496 26.9418 97.8496 26.0997V17.8451C97.8496 16.3214 98.865 15.0191 100.308 14.6309V18.5108H103.976C104.517 18.5108 104.956 18.9502 104.956 19.4897C104.956 20.0303 104.517 20.4696 103.976 20.4696H100.307V26.0736C100.307 27.1954 100.489 27.9865 100.862 28.4905C101.25 29.0133 101.898 29.2794 102.788 29.2794C103.362 29.2794 103.878 29.2168 104.324 29.0947C104.6 29.0185 104.844 28.9455 105.051 28.8756L105.436 30.7227C105.13 30.8417 104.752 30.9638 104.31 31.0859C103.773 31.2393 103.127 31.3144 102.389 31.3144Z" fill="white"/>
<path d="M115.339 31.0149V24.4258C115.339 23.7151 115.291 23.0973 115.197 22.588C115.098 22.06 114.932 21.6206 114.703 21.2825C114.463 20.9267 114.139 20.6658 113.738 20.504C113.356 20.3485 112.882 20.2703 112.334 20.2703C111.917 20.2703 111.487 20.3141 111.053 20.4007C110.621 20.4863 110.308 20.5635 110.095 20.6345L109.902 20.6992V31.0138H107.443V15.473C107.443 13.9504 108.459 12.647 109.902 12.2588V18.778L110.278 18.6475C110.596 18.5369 110.973 18.4398 111.4 18.3585C111.82 18.2791 112.244 18.2384 112.658 18.2384C113.665 18.2384 114.506 18.3783 115.16 18.6538C115.803 18.9251 116.324 19.3091 116.709 19.7934C117.097 20.2838 117.378 20.8808 117.542 21.5695C117.711 22.2771 117.797 23.0785 117.797 23.952V31.0159H115.339V31.0149Z" fill="white"/>
<path d="M126.25 31.3656C125.361 31.3656 124.54 31.2048 123.814 30.8897C123.089 30.5745 122.456 30.1268 121.936 29.5581C121.414 28.9883 121 28.2891 120.706 27.4793C120.411 26.6664 120.262 25.7491 120.262 24.7525C120.262 23.7569 120.411 22.8438 120.706 22.0381C121 21.2367 121.418 20.5406 121.947 19.9729C122.475 19.4052 123.111 18.9617 123.837 18.6538C124.563 18.3449 125.375 18.1895 126.25 18.1895C127.124 18.1895 127.94 18.346 128.677 18.6549C129.41 18.9627 130.045 19.4052 130.565 19.9719C131.087 20.5406 131.5 21.2356 131.794 22.0392C132.09 22.8459 132.24 23.7579 132.24 24.7535C132.24 25.748 132.094 26.6674 131.806 27.4835C131.521 28.2922 131.111 28.9914 130.59 29.5591C130.069 30.1268 129.434 30.5756 128.7 30.8897C127.964 31.2048 127.14 31.3656 126.25 31.3656ZM126.25 20.2463C125.16 20.2463 124.298 20.6679 123.687 21.4986C123.095 22.3011 122.794 23.3958 122.794 24.7514C122.794 26.1237 123.094 27.2299 123.686 28.0418C124.296 28.8808 125.159 29.3066 126.25 29.3066C127.34 29.3066 128.203 28.8808 128.815 28.0407C129.407 27.2288 129.706 26.1216 129.706 24.7514C129.706 23.3969 129.405 22.3022 128.814 21.4986C128.202 20.6679 127.339 20.2463 126.25 20.2463Z" fill="white"/>
<path d="M140.566 31.3395C139.573 31.3395 138.675 31.1861 137.894 30.8845C137.121 30.5839 136.452 30.1488 135.908 29.5884C135.365 29.029 134.939 28.3392 134.647 27.5398C134.351 26.7342 134.201 25.8127 134.201 24.8015C134.201 23.8018 134.327 22.8834 134.576 22.0736C134.822 21.2722 135.186 20.5782 135.66 20.0105C136.131 19.4459 136.711 19.0055 137.383 18.6998C138.059 18.394 138.852 18.2375 139.74 18.2375C140.342 18.2375 140.877 18.3084 141.331 18.4493C141.794 18.5933 142.199 18.7551 142.532 18.9304L142.946 19.1464V15.472C142.946 13.9494 143.962 12.646 145.405 12.2578V30.6862C144.855 30.8417 144.176 30.9867 143.379 31.1193C142.491 31.2654 141.545 31.3395 140.566 31.3395ZM140.191 20.2714C138.997 20.2714 138.107 20.6909 137.546 21.5205C137.007 22.3126 136.735 23.3916 136.735 24.7274C136.735 26.1216 137.076 27.2372 137.749 28.0439C138.435 28.8652 139.391 29.2826 140.59 29.2826C141.092 29.2826 141.507 29.2617 141.861 29.2179C142.205 29.1762 142.498 29.1281 142.727 29.076L142.946 29.0259V21.1563L142.824 21.0718C142.536 20.8746 142.168 20.6951 141.698 20.526C141.228 20.357 140.72 20.2714 140.191 20.2714Z" fill="white"/>
<path d="M153.791 31.0145V12.4463H164.345V14.5553H156.375V21.2112H162.441C163.009 21.2112 163.471 21.6735 163.471 22.2402C163.471 22.8079 163.009 23.2691 162.441 23.2691H156.375V28.9065H164.945V31.0156H153.791V31.0145Z" fill="white"/>
<path d="M166.966 35.6877C166.781 35.6877 166.327 35.6219 165.781 35.5155C165.528 35.4665 165.313 35.3214 165.172 35.1075C165.033 34.8935 164.987 34.6379 165.043 34.3884C165.142 33.9512 165.523 33.635 165.949 33.635C165.993 33.635 166.038 33.6381 166.083 33.6454C166.336 33.6851 166.589 33.7049 166.835 33.7049C167.686 33.7049 168.369 33.4931 168.861 33.0767C169.336 32.6749 169.756 32.055 170.106 31.2348L170.159 31.1127L170.097 30.9937C169.153 29.1789 168.232 27.169 167.36 25.0214C166.532 22.9791 165.782 20.7918 165.126 18.5137H167.753C167.913 19.1649 168.103 19.8609 168.319 20.5852C168.563 21.4064 168.83 22.2465 169.112 23.0814C169.4 23.9319 169.705 24.7803 170.019 25.6026C170.337 26.4375 170.659 27.2243 170.978 27.9402L171.264 28.5852L171.502 27.9204C172.031 26.4406 172.535 24.8419 173 23.1659C173.442 21.5776 173.851 20.0133 174.219 18.5137H176.751C175.436 23.3005 173.897 27.7054 172.174 31.6084C171.85 32.3378 171.512 32.9713 171.17 33.492C170.838 33.9981 170.462 34.4218 170.053 34.7516C169.651 35.0762 169.195 35.3151 168.699 35.4633C168.203 35.6105 167.622 35.6856 166.969 35.6887H166.966V35.6877Z" fill="white"/>
<path d="M184.415 31.3395C183.309 31.3395 182.336 31.1735 181.523 30.8479C180.717 30.5244 180.046 30.0694 179.528 29.4976C179.008 28.9215 178.615 28.2338 178.363 27.4511C178.107 26.6591 177.977 25.7762 177.977 24.8276C177.977 23.7193 178.142 22.7363 178.469 21.9077C178.795 21.0812 179.232 20.3862 179.769 19.8414C180.305 19.2977 180.928 18.8813 181.622 18.6069C182.318 18.3303 183.039 18.1895 183.766 18.1895C185.474 18.1895 186.819 18.7217 187.766 19.7694C188.721 20.8276 189.205 22.4451 189.205 24.5771C189.205 24.741 189.201 24.9246 189.193 25.1281C189.189 25.2304 189.185 25.3275 189.178 25.4193H180.512L180.536 25.724C180.625 26.8448 181.031 27.7287 181.744 28.3507C182.451 28.9685 183.476 29.2826 184.791 29.2826C185.241 29.2826 186.218 29.1208 186.982 28.9695C187.049 28.956 187.116 28.9497 187.182 28.9497C187.682 28.9497 188.102 29.3076 188.183 29.8012C188.264 30.3053 187.956 30.7937 187.468 30.9346C187.235 31.0024 187.021 31.0598 186.897 31.0848C186.531 31.1579 186.132 31.2195 185.708 31.2685C185.288 31.3144 184.853 31.3395 184.415 31.3395ZM183.79 20.1461C183.281 20.1461 182.827 20.2442 182.44 20.4383C182.059 20.6293 181.73 20.8839 181.464 21.1939C181.201 21.5038 180.996 21.8607 180.852 22.2552C180.712 22.6403 180.615 23.0389 180.561 23.4396L180.52 23.759H186.746V23.4762C186.746 23.0337 186.683 22.6058 186.558 22.2062C186.431 21.7971 186.242 21.437 185.994 21.1365C185.745 20.8318 185.435 20.5876 185.076 20.4123C184.713 20.2359 184.281 20.1461 183.79 20.1461Z" fill="white"/>
<path d="M194.933 31.3396C193.815 31.3396 192.906 31.2467 192.235 31.0631L191.888 30.966C191.394 30.8251 191.09 30.319 191.194 29.8118C191.29 29.3537 191.696 29.0208 192.16 29.0208C192.249 29.0208 192.34 29.0333 192.429 29.0584C192.533 29.0886 192.641 29.1178 192.75 29.1471C193.394 29.3182 194.137 29.4059 194.958 29.4059C195.813 29.4059 196.428 29.3015 196.839 29.0865C197.297 28.8476 197.54 28.4197 197.54 27.8489C197.54 27.3219 197.303 26.8836 196.836 26.5454C196.419 26.2449 195.765 25.9308 194.832 25.5843C194.294 25.3892 193.795 25.1784 193.346 24.9582C192.913 24.7453 192.535 24.4948 192.224 24.2152C191.921 23.9428 191.68 23.6088 191.506 23.2227C191.332 22.8366 191.243 22.3513 191.243 21.7774C191.243 20.6597 191.641 19.805 192.459 19.1643C193.287 18.5162 194.439 18.1875 195.883 18.1875C196.625 18.1875 197.346 18.2574 198.026 18.3941C198.143 18.4181 198.256 18.4411 198.364 18.4651C198.623 18.5225 198.846 18.6769 198.988 18.9003C199.129 19.1215 199.174 19.3845 199.116 19.6412C199.017 20.0858 198.615 20.4093 198.162 20.4093C198.094 20.4093 198.026 20.402 197.958 20.3873C197.637 20.3185 196.551 20.0962 196.032 20.0962C195.327 20.0962 194.748 20.2287 194.313 20.4917C193.914 20.7328 193.676 21.1669 193.676 21.6542C193.677 21.9099 193.723 22.1416 193.814 22.343C193.909 22.5527 194.067 22.7448 194.286 22.9138C194.486 23.0683 194.74 23.2175 195.063 23.3699C195.368 23.5149 195.747 23.6652 196.19 23.8186C196.885 24.0764 197.488 24.3373 197.976 24.5898C198.448 24.8329 198.841 25.1105 199.143 25.4132C199.436 25.7064 199.653 26.0456 199.789 26.4213C199.928 26.8043 199.998 27.277 199.998 27.8238C199.998 28.9853 199.584 29.8369 198.732 30.4275C197.861 31.0328 196.582 31.3396 194.933 31.3396Z" fill="white"/>
<path d="M24.929 12.6279H21.9746V26.1828H24.929V12.6279Z" fill="white"/>
<path d="M10.1086 24.3584H7.1543V37.9123H10.1086V24.3584Z" fill="white"/>
<path d="M46.7932 12.6279H43.8389V26.1828H46.7932V12.6279Z" fill="white"/>
<path d="M31.9729 24.3584H29.0186V37.9133H31.9729V24.3584Z" fill="white"/>
<path d="M28.9957 42.8791C28.8559 43.81 28.0033 44.529 26.9733 44.529C25.8463 44.529 24.929 43.6681 24.929 42.6109V31.1494H21.9746V42.612C21.9746 45.2992 24.2172 47.4844 26.9743 47.4844C29.6386 47.4844 31.8228 45.4421 31.9657 42.8791H28.9957Z" fill="white"/>
<path d="M7.1543 42.8779V46.5022C7.1543 47.3183 7.81592 47.9799 8.63199 47.9799C9.44806 47.9799 10.1097 47.3183 10.1097 46.5022V42.879L7.1543 42.8779Z" fill="white"/>
<path d="M43.8389 31.1494V46.5024C43.8389 47.3185 44.5005 47.9801 45.3166 47.9801C46.1326 47.9801 46.7943 47.3185 46.7943 46.5024V31.1494H43.8389Z" fill="white"/>
<path d="M31.9739 19.3916V8.62092C31.9739 5.49648 34.635 2.95434 37.9066 2.95434C40.8348 2.95434 43.2736 4.99243 43.7526 7.66084H46.7383C46.2426 3.35821 42.4722 0 37.9066 0C33.006 0 29.0195 3.86747 29.0195 8.62092V19.3916H31.9739Z" fill="white"/>
<path d="M10.1096 19.3916V8.62092C10.1096 5.49648 12.7707 2.95434 16.0423 2.95434C18.9706 2.95434 21.4094 4.99243 21.8884 7.66084H24.874C24.3794 3.35821 20.6079 0 16.0423 0C11.1417 0 7.15527 3.86747 7.15527 8.62092V19.3916H10.1096Z" fill="white"/>
<path d="M27.3146 9.23535H11.8145V11.0532H27.3146V9.23535Z" fill="white"/>
<path d="M33.6777 29.5746V27.7567H47.384C47.6198 27.7567 47.8578 27.7212 48.0905 27.6524C49.1382 27.3414 49.8687 26.3615 49.8687 25.2699C49.8687 24.3255 49.3219 23.4656 48.4975 23.0492V21.1123C50.354 21.6059 51.6876 23.2934 51.6876 25.2709C51.6876 27.4645 50.0451 29.3033 47.8661 29.5475C47.7012 29.5663 47.5395 29.5757 47.384 29.5757H33.6777V29.5746Z" fill="white"/>
<path d="M42.1349 20.9648H26.6348V22.7827H42.1349V20.9648Z" fill="white"/>
<path d="M33.6777 11.0532V9.23535H50.6409C51.1419 9.23535 51.5499 9.64339 51.5499 10.1443C51.5499 10.6452 51.1419 11.0532 50.6409 11.0532H33.6777Z" fill="white"/>
<path d="M48.498 41.3052V39.4873H50.6415C51.1424 39.4873 51.5505 39.8953 51.5505 40.3963C51.5505 40.8972 51.1424 41.3052 50.6415 41.3052H48.498Z" fill="white"/>
<path d="M11.2465 41.304H6.77381C6.53587 41.304 6.30107 41.2925 6.07775 41.2685C2.61205 40.9127 0 38.0168 0 34.5302C0 31.2565 2.30211 28.5036 5.45056 27.8848V29.7538C3.31959 30.3403 1.81894 32.2782 1.81894 34.5302C1.81894 36.944 3.54396 38.9967 5.92121 39.411C6.20089 39.46 6.48891 39.4851 6.77485 39.4851H11.2465L20.2713 39.4861V41.304H11.2465Z" fill="white"/>
<path d="M27.3146 27.7568H11.8145V29.5747H27.3146V27.7568Z" fill="white"/>
<path d="M6.77381 22.7836C6.54318 22.7836 6.31464 22.7721 6.07462 22.7481C2.61205 22.3912 0 19.4942 0 16.0087C0 12.7361 2.30211 9.98316 5.45056 9.36328V11.2323C3.31959 11.8188 1.81894 13.7567 1.81894 16.0087C1.81894 18.4225 3.54396 20.4762 5.92121 20.8905C6.20924 20.9396 6.49622 20.9646 6.77485 20.9646H20.2713V22.7825H6.77381V22.7836Z" fill="white"/>
<path d="M42.1349 39.4863H26.6348V41.3042H42.1349V39.4863Z" fill="white"/>
</g>
<defs>
<clipPath id="clip0_210_10071">
<rect width="200" height="47.9802" fill="white"/>
</clipPath>
</defs>
</svg>
